<svg width="20" height="20" viewBox="0 0 20 20" fill="none" xmlns="http://www.w3.org/2000/svg">
<g clip-path="url(#clip0_395_139)">
<path d="M6.66669 6.66675V4.33341C6.66669 3.39999 6.66669 2.93328 6.84835 2.57676C7.00814 2.26316 7.2631 2.00819 7.57671 1.8484C7.93323 1.66675 8.39994 1.66675 9.33336 1.66675H15.6667C16.6001 1.66675 17.0668 1.66675 17.4233 1.8484C17.7369 2.00819 17.9919 2.26316 18.1517 2.57676C18.3333 2.93328 18.3333 3.39999 18.3333 4.33341V10.6667C18.3333 11.6002 18.3333 12.0669 18.1517 12.4234C17.9919 12.737 17.7369 12.992 17.4233 13.1518C17.0668 13.3334 16.6001 13.3334 15.6667 13.3334H13.3333M4.33336 18.3334H10.6667C11.6001 18.3334 12.0668 18.3334 12.4233 18.1518C12.7369 17.992 12.9919 17.737 13.1517 17.4234C13.3333 17.0669 13.3333 16.6002 13.3333 15.6667V9.33341C13.3333 8.39999 13.3333 7.93328 13.1517 7.57676C12.9919 7.26316 12.7369 7.00819 12.4233 6.8484C12.0668 6.66675 11.6001 6.66675 10.6667 6.66675H4.33336C3.39994 6.66675 2.93323 6.66675 2.57671 6.8484C2.2631 7.00819 2.00814 7.26316 1.84835 7.57676C1.66669 7.93328 1.66669 8.39999 1.66669 9.33341V15.6667C1.66669 16.6002 1.66669 17.0669 1.84835 17.4234C2.00814 17.737 2.2631 17.992 2.57671 18.1518C2.93323 18.3334 3.39994 18.3334 4.33336 18.3334Z" stroke="currentColor" stroke-width="1.66667" stroke-linecap="round" stroke-linejoin="round"/>
</g>
<defs>
<clipPath id="clip0_395_139">
<rect width="20" height="20" fill="white"/>
</clipPath>
</defs>
</svg>
